<mxfile host="app.diagrams.net" modified="2024-01-25T16:32:05.994Z" agent="Mozilla/5.0 (Windows NT 10.0; Win64; x64) AppleWebKit/537.36 (KHTML, like Gecko) Chrome/120.0.0.0 Safari/537.36 Edg/120.0.0.0" etag="57ktcAAreOsDClRdXijj" version="22.1.19" type="device">
  <diagram name="Page-1" id="W_B_G76pps4Zbc3CH-DW">
    <mxGraphModel dx="447" dy="376" grid="1" gridSize="10" guides="1" tooltips="1" connect="1" arrows="1" fold="1" page="1" pageScale="1" pageWidth="850" pageHeight="1100" math="0" shadow="0">
      <root>
        <mxCell id="0" />
        <mxCell id="1" parent="0" />
        <mxCell id="RH-4TFpWR5kqe6f-4Rrm-1" style="edgeStyle=orthogonalEdgeStyle;rounded=0;orthogonalLoop=1;jettySize=auto;html=1;entryX=0;entryY=0.5;entryDx=0;entryDy=0;" edge="1" parent="1" source="RH-4TFpWR5kqe6f-4Rrm-5" target="RH-4TFpWR5kqe6f-4Rrm-10">
          <mxGeometry relative="1" as="geometry">
            <Array as="points">
              <mxPoint x="370" y="320" />
              <mxPoint x="370" y="220" />
            </Array>
          </mxGeometry>
        </mxCell>
        <mxCell id="RH-4TFpWR5kqe6f-4Rrm-2" value="2/2,R" style="edgeLabel;html=1;align=center;verticalAlign=middle;resizable=0;points=[];" vertex="1" connectable="0" parent="RH-4TFpWR5kqe6f-4Rrm-1">
          <mxGeometry x="-0.6153" y="2" relative="1" as="geometry">
            <mxPoint x="31" y="4" as="offset" />
          </mxGeometry>
        </mxCell>
        <mxCell id="RH-4TFpWR5kqe6f-4Rrm-26" value="1/1,R" style="edgeLabel;html=1;align=center;verticalAlign=middle;resizable=0;points=[];" vertex="1" connectable="0" parent="RH-4TFpWR5kqe6f-4Rrm-1">
          <mxGeometry x="0.5297" y="1" relative="1" as="geometry">
            <mxPoint x="13" y="-7" as="offset" />
          </mxGeometry>
        </mxCell>
        <mxCell id="RH-4TFpWR5kqe6f-4Rrm-24" style="edgeStyle=orthogonalEdgeStyle;rounded=0;orthogonalLoop=1;jettySize=auto;html=1;entryX=0;entryY=0.5;entryDx=0;entryDy=0;" edge="1" parent="1" source="RH-4TFpWR5kqe6f-4Rrm-5" target="RH-4TFpWR5kqe6f-4Rrm-15">
          <mxGeometry relative="1" as="geometry" />
        </mxCell>
        <mxCell id="RH-4TFpWR5kqe6f-4Rrm-25" style="edgeStyle=orthogonalEdgeStyle;rounded=0;orthogonalLoop=1;jettySize=auto;html=1;entryX=0;entryY=0.5;entryDx=0;entryDy=0;" edge="1" parent="1" source="RH-4TFpWR5kqe6f-4Rrm-5" target="RH-4TFpWR5kqe6f-4Rrm-20">
          <mxGeometry relative="1" as="geometry">
            <Array as="points">
              <mxPoint x="370" y="320" />
              <mxPoint x="370" y="420" />
            </Array>
          </mxGeometry>
        </mxCell>
        <mxCell id="RH-4TFpWR5kqe6f-4Rrm-27" value="B/B,R" style="edgeLabel;html=1;align=center;verticalAlign=middle;resizable=0;points=[];" vertex="1" connectable="0" parent="RH-4TFpWR5kqe6f-4Rrm-25">
          <mxGeometry x="0.4976" relative="1" as="geometry">
            <mxPoint x="16" y="-10" as="offset" />
          </mxGeometry>
        </mxCell>
        <mxCell id="RH-4TFpWR5kqe6f-4Rrm-5" value="q0" style="ellipse;whiteSpace=wrap;html=1;" vertex="1" parent="1">
          <mxGeometry x="290" y="290" width="60" height="60" as="geometry" />
        </mxCell>
        <mxCell id="RH-4TFpWR5kqe6f-4Rrm-31" style="edgeStyle=orthogonalEdgeStyle;rounded=0;orthogonalLoop=1;jettySize=auto;html=1;entryX=0.5;entryY=0;entryDx=0;entryDy=0;" edge="1" parent="1" source="RH-4TFpWR5kqe6f-4Rrm-10" target="RH-4TFpWR5kqe6f-4Rrm-15">
          <mxGeometry relative="1" as="geometry" />
        </mxCell>
        <mxCell id="RH-4TFpWR5kqe6f-4Rrm-32" value="2/2,R" style="edgeLabel;html=1;align=center;verticalAlign=middle;resizable=0;points=[];" vertex="1" connectable="0" parent="RH-4TFpWR5kqe6f-4Rrm-31">
          <mxGeometry x="-0.1571" y="-3" relative="1" as="geometry">
            <mxPoint x="20" as="offset" />
          </mxGeometry>
        </mxCell>
        <mxCell id="RH-4TFpWR5kqe6f-4Rrm-37" style="edgeStyle=orthogonalEdgeStyle;rounded=0;orthogonalLoop=1;jettySize=auto;html=1;exitX=0.5;exitY=0;exitDx=0;exitDy=0;entryX=0;entryY=0.5;entryDx=0;entryDy=0;" edge="1" parent="1" source="RH-4TFpWR5kqe6f-4Rrm-10" target="RH-4TFpWR5kqe6f-4Rrm-43">
          <mxGeometry relative="1" as="geometry">
            <Array as="points">
              <mxPoint x="458" y="170" />
              <mxPoint x="560" y="170" />
              <mxPoint x="560" y="220" />
            </Array>
          </mxGeometry>
        </mxCell>
        <mxCell id="RH-4TFpWR5kqe6f-4Rrm-44" value="B/B,R" style="edgeLabel;html=1;align=center;verticalAlign=middle;resizable=0;points=[];" vertex="1" connectable="0" parent="RH-4TFpWR5kqe6f-4Rrm-37">
          <mxGeometry x="-0.2187" y="1" relative="1" as="geometry">
            <mxPoint x="-35" y="-9" as="offset" />
          </mxGeometry>
        </mxCell>
        <mxCell id="RH-4TFpWR5kqe6f-4Rrm-10" value="q1" style="ellipse;whiteSpace=wrap;html=1;" vertex="1" parent="1">
          <mxGeometry x="428" y="190" width="60" height="60" as="geometry" />
        </mxCell>
        <mxCell id="RH-4TFpWR5kqe6f-4Rrm-35" style="edgeStyle=orthogonalEdgeStyle;rounded=0;orthogonalLoop=1;jettySize=auto;html=1;entryX=0;entryY=0.5;entryDx=0;entryDy=0;exitX=0.5;exitY=1;exitDx=0;exitDy=0;" edge="1" parent="1" source="RH-4TFpWR5kqe6f-4Rrm-15" target="RH-4TFpWR5kqe6f-4Rrm-42">
          <mxGeometry relative="1" as="geometry">
            <mxPoint x="458.0000000000001" y="380" as="targetPoint" />
            <Array as="points">
              <mxPoint x="458" y="370" />
              <mxPoint x="560" y="370" />
              <mxPoint x="560" y="320" />
            </Array>
          </mxGeometry>
        </mxCell>
        <mxCell id="RH-4TFpWR5kqe6f-4Rrm-45" value="B/B,R" style="edgeLabel;html=1;align=center;verticalAlign=middle;resizable=0;points=[];" vertex="1" connectable="0" parent="RH-4TFpWR5kqe6f-4Rrm-35">
          <mxGeometry x="-0.189" y="2" relative="1" as="geometry">
            <mxPoint x="-35" y="-8" as="offset" />
          </mxGeometry>
        </mxCell>
        <mxCell id="RH-4TFpWR5kqe6f-4Rrm-15" value="q2" style="ellipse;whiteSpace=wrap;html=1;" vertex="1" parent="1">
          <mxGeometry x="428" y="290" width="60" height="60" as="geometry" />
        </mxCell>
        <mxCell id="RH-4TFpWR5kqe6f-4Rrm-36" style="edgeStyle=orthogonalEdgeStyle;rounded=0;orthogonalLoop=1;jettySize=auto;html=1;" edge="1" parent="1" source="RH-4TFpWR5kqe6f-4Rrm-20" target="RH-4TFpWR5kqe6f-4Rrm-23">
          <mxGeometry relative="1" as="geometry" />
        </mxCell>
        <mxCell id="RH-4TFpWR5kqe6f-4Rrm-38" value="B/0,R" style="edgeLabel;html=1;align=center;verticalAlign=middle;resizable=0;points=[];" vertex="1" connectable="0" parent="RH-4TFpWR5kqe6f-4Rrm-36">
          <mxGeometry x="-0.6211" y="-1" relative="1" as="geometry">
            <mxPoint x="-51" y="7" as="offset" />
          </mxGeometry>
        </mxCell>
        <mxCell id="RH-4TFpWR5kqe6f-4Rrm-20" value="q3" style="ellipse;whiteSpace=wrap;html=1;" vertex="1" parent="1">
          <mxGeometry x="428" y="390" width="60" height="60" as="geometry" />
        </mxCell>
        <mxCell id="RH-4TFpWR5kqe6f-4Rrm-21" style="edgeStyle=orthogonalEdgeStyle;rounded=0;orthogonalLoop=1;jettySize=auto;html=1;entryX=0;entryY=0;entryDx=0;entryDy=0;exitX=0;exitY=1;exitDx=0;exitDy=0;" edge="1" parent="1" source="RH-4TFpWR5kqe6f-4Rrm-5" target="RH-4TFpWR5kqe6f-4Rrm-5">
          <mxGeometry relative="1" as="geometry">
            <mxPoint x="259.97" y="240" as="sourcePoint" />
            <mxPoint x="229.97" y="270" as="targetPoint" />
            <Array as="points">
              <mxPoint x="270" y="341" />
              <mxPoint x="270" y="299" />
            </Array>
          </mxGeometry>
        </mxCell>
        <mxCell id="RH-4TFpWR5kqe6f-4Rrm-22" value="0/0,R" style="edgeLabel;html=1;align=center;verticalAlign=middle;resizable=0;points=[];" vertex="1" connectable="0" parent="RH-4TFpWR5kqe6f-4Rrm-21">
          <mxGeometry x="-0.3834" relative="1" as="geometry">
            <mxPoint x="-20" y="-19" as="offset" />
          </mxGeometry>
        </mxCell>
        <mxCell id="RH-4TFpWR5kqe6f-4Rrm-23" value="q_accept" style="ellipse;shape=doubleEllipse;whiteSpace=wrap;html=1;aspect=fixed;" vertex="1" parent="1">
          <mxGeometry x="710" y="230" width="70" height="70" as="geometry" />
        </mxCell>
        <mxCell id="RH-4TFpWR5kqe6f-4Rrm-28" style="edgeStyle=orthogonalEdgeStyle;rounded=0;orthogonalLoop=1;jettySize=auto;html=1;exitX=1;exitY=0;exitDx=0;exitDy=0;entryX=1;entryY=1;entryDx=0;entryDy=0;" edge="1" parent="1" source="RH-4TFpWR5kqe6f-4Rrm-10" target="RH-4TFpWR5kqe6f-4Rrm-10">
          <mxGeometry relative="1" as="geometry">
            <mxPoint x="480" y="200" as="targetPoint" />
            <Array as="points">
              <mxPoint x="508" y="199" />
              <mxPoint x="508" y="241" />
            </Array>
          </mxGeometry>
        </mxCell>
        <mxCell id="RH-4TFpWR5kqe6f-4Rrm-30" value="0/0,R&lt;br&gt;1/1,R" style="edgeLabel;html=1;align=center;verticalAlign=middle;resizable=0;points=[];" vertex="1" connectable="0" parent="RH-4TFpWR5kqe6f-4Rrm-28">
          <mxGeometry x="-0.2514" relative="1" as="geometry">
            <mxPoint x="16" y="13" as="offset" />
          </mxGeometry>
        </mxCell>
        <mxCell id="RH-4TFpWR5kqe6f-4Rrm-33" style="edgeStyle=orthogonalEdgeStyle;rounded=0;orthogonalLoop=1;jettySize=auto;html=1;exitX=1;exitY=0;exitDx=0;exitDy=0;entryX=1;entryY=1;entryDx=0;entryDy=0;" edge="1" parent="1" source="RH-4TFpWR5kqe6f-4Rrm-15" target="RH-4TFpWR5kqe6f-4Rrm-15">
          <mxGeometry relative="1" as="geometry">
            <Array as="points">
              <mxPoint x="510" y="299" />
              <mxPoint x="510" y="341" />
            </Array>
          </mxGeometry>
        </mxCell>
        <mxCell id="RH-4TFpWR5kqe6f-4Rrm-34" value="0/0,R&lt;br&gt;1/1,R&lt;br&gt;2/2,R" style="edgeLabel;html=1;align=center;verticalAlign=middle;resizable=0;points=[];" vertex="1" connectable="0" parent="RH-4TFpWR5kqe6f-4Rrm-33">
          <mxGeometry x="0.1374" y="-1" relative="1" as="geometry">
            <mxPoint x="20" y="-8" as="offset" />
          </mxGeometry>
        </mxCell>
        <mxCell id="RH-4TFpWR5kqe6f-4Rrm-47" style="edgeStyle=orthogonalEdgeStyle;rounded=0;orthogonalLoop=1;jettySize=auto;html=1;entryX=0;entryY=0.5;entryDx=0;entryDy=0;" edge="1" parent="1" source="RH-4TFpWR5kqe6f-4Rrm-42" target="RH-4TFpWR5kqe6f-4Rrm-23">
          <mxGeometry relative="1" as="geometry" />
        </mxCell>
        <mxCell id="RH-4TFpWR5kqe6f-4Rrm-49" value="B/2,R" style="edgeLabel;html=1;align=center;verticalAlign=middle;resizable=0;points=[];" vertex="1" connectable="0" parent="RH-4TFpWR5kqe6f-4Rrm-47">
          <mxGeometry x="-0.6663" relative="1" as="geometry">
            <mxPoint x="-4" y="-8" as="offset" />
          </mxGeometry>
        </mxCell>
        <mxCell id="RH-4TFpWR5kqe6f-4Rrm-42" value="q5" style="ellipse;whiteSpace=wrap;html=1;" vertex="1" parent="1">
          <mxGeometry x="580" y="290" width="60" height="60" as="geometry" />
        </mxCell>
        <mxCell id="RH-4TFpWR5kqe6f-4Rrm-46" style="edgeStyle=orthogonalEdgeStyle;rounded=0;orthogonalLoop=1;jettySize=auto;html=1;entryX=0;entryY=0.5;entryDx=0;entryDy=0;" edge="1" parent="1" source="RH-4TFpWR5kqe6f-4Rrm-43" target="RH-4TFpWR5kqe6f-4Rrm-23">
          <mxGeometry relative="1" as="geometry" />
        </mxCell>
        <mxCell id="RH-4TFpWR5kqe6f-4Rrm-48" value="B/1,R" style="edgeLabel;html=1;align=center;verticalAlign=middle;resizable=0;points=[];" vertex="1" connectable="0" parent="RH-4TFpWR5kqe6f-4Rrm-46">
          <mxGeometry x="-0.6497" y="-2" relative="1" as="geometry">
            <mxPoint x="-2" y="-11" as="offset" />
          </mxGeometry>
        </mxCell>
        <mxCell id="RH-4TFpWR5kqe6f-4Rrm-43" value="q4" style="ellipse;whiteSpace=wrap;html=1;" vertex="1" parent="1">
          <mxGeometry x="580" y="190" width="60" height="60" as="geometry" />
        </mxCell>
      </root>
    </mxGraphModel>
  </diagram>
</mxfile>
